<svg id="wave" style="transform:rotate(0deg); transition: 0.3s" viewBox="0 0 1440 490" version="1.1" xmlns="http://www.w3.org/2000/svg"><defs><linearGradient id="sw-gradient-0" x1="0" x2="0" y1="1" y2="0"><stop stop-color="rgba(222, 222, 222, 1)" offset="0%"></stop><stop stop-color="rgba(222, 222, 222, 1)" offset="100%"></stop></linearGradient></defs><path style="transform:translate(0, 0px); opacity:1" fill="url(#sw-gradient-0)" d="M0,441L60,400.2C120,359,240,278,360,269.5C480,261,600,327,720,367.5C840,408,960,425,1080,359.3C1200,294,1320,147,1440,147C1560,147,1680,294,1800,302.2C1920,310,2040,180,2160,155.2C2280,131,2400,212,2520,236.8C2640,261,2760,229,2880,253.2C3000,278,3120,359,3240,343C3360,327,3480,212,3600,155.2C3720,98,3840,98,3960,155.2C4080,212,4200,327,4320,326.7C4440,327,4560,212,4680,147C4800,82,4920,65,5040,73.5C5160,82,5280,114,5400,179.7C5520,245,5640,343,5760,392C5880,441,6000,441,6120,416.5C6240,392,6360,343,6480,277.7C6600,212,6720,131,6840,89.8C6960,49,7080,49,7200,89.8C7320,131,7440,212,7560,269.5C7680,327,7800,359,7920,351.2C8040,343,8160,294,8280,277.7C8400,261,8520,278,8580,285.8L8640,294L8640,490L8580,490C8520,490,8400,490,8280,490C8160,490,8040,490,7920,490C7800,490,7680,490,7560,490C7440,490,7320,490,7200,490C7080,490,6960,490,6840,490C6720,490,6600,490,6480,490C6360,490,6240,490,6120,490C6000,490,5880,490,5760,490C5640,490,5520,490,5400,490C5280,490,5160,490,5040,490C4920,490,4800,490,4680,490C4560,490,4440,490,4320,490C4200,490,4080,490,3960,490C3840,490,3720,490,3600,490C3480,490,3360,490,3240,490C3120,490,3000,490,2880,490C2760,490,2640,490,2520,490C2400,490,2280,490,2160,490C2040,490,1920,490,1800,490C1680,490,1560,490,1440,490C1320,490,1200,490,1080,490C960,490,840,490,720,490C600,490,480,490,360,490C240,490,120,490,60,490L0,490Z"></path></svg>